<svg width="503" height="390" viewBox="0 0 503 390" fill="none" xmlns="http://www.w3.org/2000/svg">
<path fill-rule="evenodd" clip-rule="evenodd" d="M84.6573 -2.10681C69.5237 2.63349 57.1985 12.6869 48.5554 27.3333C43.7877 35.413 39.6654 56.2898 34.8603 96.6965C33.1624 110.965 30.929 125.908 29.8932 129.904C28.8596 133.899 26.4559 149.776 24.5505 165.186C22.6471 180.596 19.2347 206.28 16.9702 222.261C-0.247367 343.736 -1.34534 353.449 0.819571 365.148C2.99693 376.91 10.0915 386.28 22.1406 393.308C29.4552 397.575 34.2065 398.463 54.085 399.277C69.5943 399.912 77.4361 399.503 77.4361 398.056C77.4361 396.861 80.4707 394.852 84.182 393.592C94.114 390.22 105.734 378.522 107.265 370.353C107.984 366.524 109.592 355.919 110.842 346.787C113.386 328.195 119.842 312.509 128.779 303.203C132.067 299.778 140.233 287.296 146.925 275.469C157.204 257.298 158.715 253.355 156.664 250.071C153.586 245.144 153.521 245.584 158.21 239.7C172.995 221.146 182.495 210.482 199.381 193.487C209.94 182.858 218.653 172.844 218.74 171.232C218.828 169.619 219.226 165.497 219.625 162.073C220.023 158.648 220.999 149.309 221.794 141.318C222.587 133.328 224.058 125.217 225.061 123.295C227.533 118.553 227.369 112.754 224.808 114.338C223.666 115.043 222.732 117.034 222.732 118.758C222.732 123.173 218.066 127.326 212.171 128.158C208.7 128.648 204.41 132.975 198.181 142.269C189.09 155.832 181.57 164.032 176.748 165.638C175.11 166.184 174.077 170.321 174.029 176.512C173.975 183.782 172.947 187.134 170.263 188.817C167.399 190.61 166.12 190.432 164.558 188.016C163.142 185.826 162.928 186.905 163.837 191.648C164.713 196.21 164.331 198.393 162.658 198.393C161.091 198.393 160.689 199.987 161.56 202.735C162.64 206.13 162.15 206.921 159.312 206.367C153.914 205.31 149.443 190.766 152.139 183.033C153.32 179.643 155.516 175.41 157.017 173.623C158.517 171.836 160.938 166.172 162.395 161.035C163.85 155.898 165.751 150.762 166.617 149.62C167.484 148.479 168.75 145.202 169.431 142.337C170.112 139.471 173.867 133.637 177.775 129.372C183.278 123.364 184.905 119.765 184.994 113.416C185.125 103.967 187.236 99.38 197.606 86.0142C201.722 80.7094 206.957 73.7754 209.24 70.6041C211.523 67.4328 215.089 63.2404 217.163 61.2853C221.347 57.3441 241.737 51.0368 250.297 51.0368C259.525 51.0368 263.506 38.1525 256.461 31.0856C253.51 28.1261 252.935 24.4069 253.391 11.2216L253.954 -5L173.479 -4.86097C114.9 -4.75928 90.7327 -4.00999 84.6573 -2.10681ZM308.869 -1.36798C305.833 6.06209 301.752 25.3387 301.682 32.5966C301.638 36.9488 299.801 42.3947 297.308 45.5639L293.009 51.0285L298.798 53.2285C301.98 54.4385 310.688 55.9639 318.144 56.6177C330.701 57.7198 351.414 66.1024 351.42 70.0873C351.423 71.7891 381.071 90.4702 383.769 90.4702C384.816 90.4702 389.747 94.1956 394.729 98.7471C403.169 106.461 403.692 107.555 402.421 114.832C400.346 126.726 390.551 152.912 385.227 160.807C382.618 164.675 380.482 169.034 380.482 170.491C380.482 171.95 379.531 173.459 378.369 173.847C377.206 174.233 375.693 179.681 375.008 185.953C373.42 200.464 370.57 204.918 359.748 209.798L355.501 211.712C352.872 212.898 349.772 212.123 348.01 209.839L347.099 208.658C343.211 203.621 343.222 203.548 348.34 199.352C354.573 194.242 354.939 192.179 349.347 193.64C342.721 195.373 344.448 191.187 355.632 178.409C366.959 165.466 367.227 164.763 368.881 143.626C369.497 135.765 371.484 127.068 373.296 124.302C375.11 121.537 376.22 118.163 375.768 116.805C375.274 115.332 373.813 116.145 372.137 118.825L369.331 123.314L359.858 118.511C354.648 115.871 346.991 113.13 342.844 112.42L335.303 111.127L333.862 120.728C333.072 126.008 330.13 137.471 327.328 146.2C324.526 154.931 321.348 168.868 320.267 177.174C318.087 193.912 315.443 200.468 310.875 200.468C307.527 200.468 307.508 200.587 307.057 224.336C306.773 239.283 305.864 242.756 297.947 259.139C293.111 269.149 289.153 278.256 289.153 279.375C289.153 280.495 288.335 281.411 287.337 281.411C286.338 281.411 284.975 284.142 284.306 287.481C283.453 291.75 281.691 293.753 278.37 294.226C275.302 294.664 271.91 298.058 268.687 303.91C262.717 314.75 253.117 321.228 245.649 319.451C238.364 317.718 235.186 314.838 235.186 309.971C235.186 306.393 234.069 306.841 226.935 313.285C215.1 323.978 200.004 326.352 194.972 318.316C191.529 312.816 202.054 293.66 212.213 286.94C216.671 283.988 222.96 278.034 226.184 273.709C229.409 269.383 232.614 265.378 233.307 264.807C236.525 262.153 239.015 254.683 237.99 250.765C236.905 246.618 236.408 246.749 226.651 253.757C221.038 257.79 212.997 264.726 208.784 269.174C204.568 273.621 199.993 277.26 198.615 277.26C196.045 277.26 171.787 296.536 167.297 302.148C165.919 303.869 162.739 310.415 160.228 316.693C157.718 322.971 153.251 331.375 150.302 335.366C147.35 339.359 141.862 349.165 138.103 357.158C134.344 365.152 130.363 373.313 129.259 375.295C126.399 380.43 126.766 385.647 130.517 393.165L133.782 399.711H186.632C236.309 399.711 241.689 399.493 239.896 396.079C233.543 383.979 233.529 360.43 242.081 351.205C251.274 341.289 260.009 336.428 273.899 336.558C292.8 336.735 307.628 341.997 313.94 361.002C317.261 370.995 316.842 388.856 306.131 396.944C305.126 399.557 314.615 399.881 361.01 399.32C412.768 398.696 415.07 398.494 424.07 393.783C443.934 383.383 457.474 364.995 460.201 344.711C460.969 339.004 462.904 325.462 464.504 314.618C466.102 303.773 469.382 280.892 471.794 263.769C476.124 233.024 479.889 206.273 488.445 145.469C490.852 128.347 494.574 102.196 496.712 87.357C503.059 43.3141 503.261 41.0685 501.771 31.1355C499.927 18.8427 490.051 5.72172 478.087 -0.330263C468.994 -4.92944 467.672 -5 389.604 -5C316.076 -5 310.246 -4.73849 308.869 -1.36798Z" fill="url(#paint0_linear_29_3216)"/>
<defs>
<linearGradient id="paint0_linear_29_3216" x1="23.2118" y1="181.11" x2="602.347" y2="182.27" gradientUnits="userSpaceOnUse">
<stop stop-color="#3C4668"/>
<stop offset="1" stop-color="#3D649B"/>
</linearGradient>
</defs>
</svg>
