<svg width="230" height="60" viewBox="0 0 230 60" fill="none" xmlns="http://www.w3.org/2000/svg">
<path fill-rule="evenodd" clip-rule="evenodd" d="M80.7293 3.92805C80.2336 4.51614 79.8965 5.90171 79.595 8.58941C79.4438 9.93899 79.1376 12.2087 78.9146 13.6333C78.6919 15.0578 78.2447 18.0637 77.9211 20.313C77.5975 22.5623 77.0983 25.9363 76.8118 27.8107C75.8546 34.0722 75.1234 36.9035 75.5121 37.3646C75.7974 37.7029 77.1617 37.8984 80.8614 37.8984C83.3471 37.8984 85.6902 37.7828 86.0678 37.6413C86.8651 37.3431 87.107 36.7422 87.332 34.5008C87.4915 32.908 87.5143 32.8712 88.4645 32.6651C88.9979 32.5495 91.7407 32.5287 94.5597 32.6193C107.688 33.0402 113.043 31.0957 116.677 24.5875C116.871 24.2396 117.356 22.89 117.754 21.5884C118.398 19.4845 118.481 18.7393 118.502 14.8602C118.524 10.6372 118.501 10.4543 117.786 9.1347C116.363 6.50479 114.215 5.02816 110.423 4.07391C108.485 3.58615 107.272 3.54553 94.6876 3.54553C83.3236 3.54553 80.9983 3.60933 80.7293 3.92805ZM133.208 4.11236C128.66 5.19475 125.21 7.6169 123.531 10.9069C121.606 14.6767 120.614 21.4333 121.456 25.0316C122.347 28.8391 124.987 31.0925 129.745 32.1067C131.374 32.4538 133.511 32.553 139.636 32.5656C144.655 32.5762 147.552 32.6833 147.737 32.8655C147.932 33.058 147.937 33.4522 147.751 34.0907C147.283 35.6958 147.402 37.2945 148.012 37.6163C148.587 37.9189 157.093 38.0162 157.853 37.7291C158.541 37.4693 159.053 36.2645 159.267 34.4048C159.435 32.9481 159.541 32.7125 160.049 32.6754C160.372 32.652 164.065 32.6095 168.255 32.5808C174.851 32.5358 176.19 32.4541 178.229 31.9723C181.975 31.087 183.695 30.2454 185.709 28.3132C187.599 26.5001 188.569 24.7432 189.676 21.1309C190.164 19.5393 190.262 18.4986 190.269 14.8602C190.277 10.8984 190.221 10.3826 189.661 9.24294C188.417 6.712 186.012 5.02598 182.343 4.11317C180.123 3.56053 179.475 3.54607 157.744 3.56516C136.664 3.58397 135.302 3.61424 133.208 4.11236ZM204.375 4.15898C203.582 5.04861 201.825 7.7813 198.315 13.5858C196.8 16.092 195.784 17.7439 195.269 18.5408C194.929 19.0657 193.926 20.6606 193.039 22.0852C190.541 26.0985 189.898 27.107 189.651 27.4017C189.525 27.5517 189.337 27.8584 189.234 28.0833C189.13 28.3083 188.734 28.983 188.354 29.5829C187.973 30.1827 187.407 31.1028 187.095 31.6277C186.783 32.1525 186.214 33.0727 185.832 33.6725C184.382 35.9452 184.067 36.9908 184.657 37.5713C185.189 38.095 194.087 38.0195 195.143 37.4824C195.592 37.2536 195.96 36.9431 195.96 36.7921C195.96 36.641 196.502 35.6933 197.164 34.6862C198.178 33.1436 200.042 30.172 202.748 25.785C203.215 25.0273 205.225 21.7733 208.433 16.5781C208.818 15.9559 209.265 15.4033 209.427 15.3501C209.596 15.2948 210.826 18.5627 212.292 22.9634C216.726 36.2686 217.062 37.2084 217.513 37.5576C218.069 37.9879 227.037 38.0386 227.839 37.6163C228.871 37.0726 228.524 35.4152 225.464 26.2784C223.863 21.4979 221.548 14.5829 220.319 10.9115C219.09 7.24011 217.954 4.081 217.794 3.89097C217.574 3.6306 215.951 3.54553 211.212 3.54553C205.036 3.54553 204.913 3.55671 204.375 4.15898ZM105.213 13.7467C106.73 14.3702 107.123 15.2231 106.956 17.5247C106.61 22.2938 105.07 22.992 95.2088 22.8513C91.5415 22.7987 89.286 22.6635 89.2647 22.4942C89.2455 22.3442 89.2408 22.1414 89.2539 22.0435C89.2672 21.9453 89.4121 20.7184 89.5758 19.3171C89.8825 16.6945 90.3704 13.9261 90.5895 13.5651C90.6577 13.4525 93.7648 13.3606 97.4939 13.3606C102.716 13.3606 104.49 13.4493 105.213 13.7467ZM150.509 14.5194C150.5 15.1565 150.22 17.2507 149.885 19.1728L149.277 22.6673L142.905 22.7172C135.858 22.772 134.858 22.6558 133.632 21.6411C132.886 21.0235 132.793 20.7803 132.793 19.4553C132.793 16.3112 133.917 14.2336 135.927 13.6611C136.413 13.5229 139.896 13.3988 143.667 13.3852L150.524 13.3606L150.509 14.5194ZM176.969 13.7467C178.318 14.3013 178.913 15.3329 178.84 16.9917C178.608 22.2202 176.909 23.0534 167.041 22.7766C163.856 22.6875 161.157 22.5585 161.045 22.4901C160.933 22.4216 161.002 21.5972 161.199 20.6579C161.396 19.7184 161.647 17.9683 161.756 16.7687C162.1 13.0128 161.337 13.3606 169.227 13.3606C174.469 13.3606 176.246 13.4493 176.969 13.7467Z" fill="#31344F"/>
<path d="M76.8518 51.0987L75.4305 51.0941L75.5939 50.1723L76.8972 50.1814C77.1303 50.1784 77.3286 50.1254 77.4921 50.0225C77.6586 49.9195 77.7903 49.7818 77.8872 49.6092C77.984 49.4336 78.0461 49.2354 78.0733 49.0144C78.0945 48.8448 78.09 48.6738 78.0597 48.5012C78.0325 48.3287 77.9674 48.1833 77.8645 48.0653C77.7646 47.9472 77.6132 47.8821 77.4104 47.87L76.3023 47.8609L75.3169 53.5463H74.2407L75.3851 46.9346L77.4512 46.9391C77.8448 46.9512 78.1732 47.0511 78.4366 47.2388C78.703 47.4235 78.8968 47.6702 79.0179 47.979C79.142 48.2848 79.1874 48.6269 79.1541 49.0053C79.1147 49.4352 78.9937 49.8075 78.7908 50.1224C78.591 50.4342 78.3246 50.6764 77.9916 50.8489C77.6616 51.0185 77.2817 51.1017 76.8518 51.0987Z" fill="#31344F"/>
<path d="M83.9894 52.6245L83.8259 53.5463H81.0377L81.1967 52.6245H83.9894ZM82.4727 46.9346L81.3238 53.5463H80.2476L81.3919 46.9346H82.4727ZM84.1256 49.6864L83.9667 50.5946H81.5508L81.7052 49.6864H84.1256ZM84.9521 46.9346L84.7886 47.8609H82.0186L82.1821 46.9346H84.9521Z" fill="#31344F"/>
<path d="M90.2823 46.9346L90.1188 47.8609H87.7212L86.7312 53.5463H85.655L86.8039 46.9346H90.2823Z" fill="#31344F"/>
<path d="M93.0333 51.1804L95.0449 46.9346H96.2665L93.5419 52.3429C93.4571 52.5185 93.3648 52.685 93.2649 52.8424C93.168 52.9999 93.0575 53.1406 92.9334 53.2647C92.8092 53.3889 92.6654 53.4842 92.502 53.5508C92.3385 53.6205 92.1493 53.6553 91.9343 53.6553C91.8647 53.6583 91.7936 53.6568 91.7209 53.6507C91.6483 53.6447 91.5756 53.6371 91.5029 53.628L91.5938 52.7062C91.6452 52.7123 91.6967 52.7183 91.7482 52.7244C91.7996 52.7304 91.8526 52.7334 91.9071 52.7334C92.0433 52.7334 92.1553 52.7017 92.2431 52.6381C92.3339 52.5715 92.4081 52.4882 92.4656 52.3883C92.5262 52.2854 92.5807 52.1779 92.6291 52.0659L93.0333 51.1804ZM92.9651 46.9346L93.5464 50.5992L93.6281 51.7798L92.8198 51.8116L91.839 46.9346H92.9651Z" fill="#31344F"/>
<path d="M101.261 46.9346L101.097 47.8609H98.5679L98.7313 46.9346H101.261ZM102.096 46.9346L100.947 53.5463H99.8711L101.025 46.9346H102.096ZM98.5179 46.9346H99.5941L98.9039 50.2268C98.8494 50.4902 98.7904 50.7748 98.7268 51.0805C98.6632 51.3863 98.58 51.686 98.477 51.9796C98.3771 52.2733 98.247 52.5412 98.0865 52.7834C97.9261 53.0226 97.7247 53.2118 97.4825 53.351C97.2404 53.4903 96.9437 53.5554 96.5925 53.5463H96.3019L96.4109 52.6245L96.5516 52.6154C96.7787 52.5942 96.9679 52.5155 97.1193 52.3792C97.2706 52.24 97.3917 52.0674 97.4825 51.8616C97.5764 51.6527 97.6491 51.4317 97.7005 51.1986C97.755 50.9625 97.7974 50.7324 97.8277 50.5083C97.861 50.2843 97.8928 50.0875 97.923 49.918L98.5179 46.9346Z" fill="#31344F"/>
<path d="M106.423 51.076L105.129 51.0714L104.734 50.8853C104.346 50.7036 104.071 50.4478 103.907 50.1178C103.747 49.7848 103.683 49.4079 103.716 48.9871C103.753 48.5603 103.869 48.1939 104.066 47.8882C104.266 47.5794 104.529 47.3433 104.856 47.1798C105.183 47.0133 105.56 46.93 105.987 46.93L107.903 46.9346L106.759 53.5463H105.683L106.668 47.8609L105.942 47.8519C105.584 47.8549 105.31 47.9714 105.12 48.2015C104.929 48.4316 104.814 48.7131 104.775 49.0461C104.753 49.2278 104.756 49.4034 104.784 49.5729C104.811 49.7394 104.877 49.8802 104.983 49.9952C105.089 50.1103 105.248 50.1723 105.46 50.1814L106.577 50.1859L106.423 51.076ZM105.56 50.5628L103.807 53.5463H102.604L104.375 50.5628H105.56Z" fill="#31344F"/>
<path d="M111.512 51.0987L110.091 51.0941L110.255 50.1723L111.558 50.1814C111.791 50.1784 111.989 50.1254 112.153 50.0225C112.319 49.9195 112.451 49.7818 112.548 49.6092C112.645 49.4336 112.707 49.2354 112.734 49.0144C112.755 48.8448 112.751 48.6738 112.72 48.5012C112.693 48.3287 112.628 48.1833 112.525 48.0653C112.425 47.9472 112.274 47.8821 112.071 47.87L110.963 47.8609L109.978 53.5463H108.901L110.046 46.9346L112.112 46.9391C112.505 46.9512 112.834 47.0511 113.097 47.2388C113.364 47.4235 113.557 47.6702 113.679 47.979C113.803 48.2848 113.848 48.6269 113.815 49.0053C113.775 49.4352 113.654 49.8075 113.451 50.1224C113.252 50.4342 112.985 50.6764 112.652 50.8489C112.322 51.0185 111.942 51.1017 111.512 51.0987Z" fill="#31344F"/>
<path d="M119.109 49.6864L118.945 50.6128H116.234L116.398 49.6864H119.109ZM117.133 46.9346L115.984 53.5463H114.908L116.053 46.9346H117.133ZM120.421 46.9346L119.272 53.5463H118.2L119.349 46.9346H120.421Z" fill="#31344F"/>
<path d="M124.684 47.8973L122.168 53.5463H121.015L124.194 46.9346H124.92L124.684 47.8973ZM124.952 53.5463L124.38 47.7928L124.462 46.9346H125.152L126.046 53.5463H124.952ZM125.402 51.0896L125.234 52.016H122.241L122.405 51.0896H125.402Z" fill="#31344F"/>
<path d="M131.05 51.076L129.756 51.0714L129.36 50.8853C128.973 50.7036 128.697 50.4478 128.534 50.1178C128.374 49.7848 128.31 49.4079 128.343 48.9871C128.38 48.5603 128.496 48.1939 128.693 47.8882C128.893 47.5794 129.156 47.3433 129.483 47.1798C129.81 47.0133 130.187 46.93 130.614 46.93L132.53 46.9346L131.386 53.5463H130.31L131.295 47.8609L130.568 47.8519C130.211 47.8549 129.937 47.9714 129.746 48.2015C129.556 48.4316 129.441 48.7131 129.401 49.0461C129.38 49.2278 129.383 49.4034 129.41 49.5729C129.438 49.7394 129.504 49.8802 129.61 49.9952C129.716 50.1103 129.875 50.1723 130.087 50.1814L131.204 50.1859L131.05 51.076ZM130.187 50.5628L128.434 53.5463H127.231L129.002 50.5628H130.187Z" fill="#31344F"/>
<path d="M139.553 47.5521L140.738 47.5612C141.09 47.5733 141.386 47.6596 141.628 47.8201C141.874 47.9805 142.069 48.1909 142.214 48.4513C142.36 48.7116 142.458 48.9962 142.509 49.305C142.561 49.6138 142.57 49.9226 142.537 50.2313C142.5 50.5795 142.414 50.9155 142.278 51.2395C142.145 51.5634 141.966 51.8555 141.742 52.1159C141.518 52.3732 141.253 52.5775 140.947 52.7289C140.642 52.8772 140.301 52.9514 139.926 52.9514L138.745 52.9423C138.394 52.9333 138.096 52.85 137.85 52.6926C137.608 52.5321 137.414 52.3248 137.269 52.0705C137.124 51.8162 137.024 51.5361 136.969 51.2304C136.918 50.9246 136.909 50.6173 136.942 50.3085C136.978 49.9604 137.063 49.6229 137.196 49.2959C137.33 48.9659 137.508 48.6708 137.732 48.4104C137.959 48.147 138.226 47.9381 138.532 47.7837C138.837 47.6293 139.178 47.5521 139.553 47.5521ZM139.508 48.474C139.175 48.474 138.899 48.5678 138.681 48.7555C138.466 48.9402 138.3 49.1733 138.182 49.4548C138.067 49.7333 137.993 50.0179 137.959 50.3085C137.938 50.475 137.929 50.6537 137.932 50.8444C137.938 51.0351 137.967 51.2183 138.018 51.3938C138.073 51.5664 138.161 51.7102 138.282 51.8252C138.403 51.9403 138.571 52.0039 138.786 52.016L139.985 52.0296C140.315 52.0296 140.586 51.9388 140.797 51.7571C141.012 51.5755 141.177 51.3469 141.292 51.0714C141.411 50.7959 141.488 50.5144 141.524 50.2268C141.542 50.0664 141.55 49.8893 141.547 49.6955C141.544 49.4987 141.518 49.311 141.47 49.1324C141.421 48.9538 141.335 48.8055 141.211 48.6874C141.09 48.5663 140.923 48.5012 140.711 48.4921L139.508 48.474ZM140.884 46.6621L139.644 53.8187H138.613L139.853 46.6621H140.884Z" fill="#31344F"/>
<path d="M145.905 51.1804L147.917 46.9346H149.138L146.414 52.3429C146.329 52.5185 146.237 52.685 146.137 52.8424C146.04 52.9999 145.929 53.1406 145.805 53.2647C145.681 53.3889 145.537 53.4842 145.374 53.5508C145.21 53.6205 145.021 53.6553 144.806 53.6553C144.737 53.6583 144.666 53.6568 144.593 53.6507C144.52 53.6447 144.448 53.6371 144.375 53.628L144.466 52.7062C144.517 52.7123 144.569 52.7183 144.62 52.7244C144.672 52.7304 144.725 52.7334 144.779 52.7334C144.915 52.7334 145.027 52.7017 145.115 52.6381C145.206 52.5715 145.28 52.4882 145.338 52.3883C145.398 52.2854 145.453 52.1779 145.501 52.0659L145.905 51.1804ZM145.837 46.9346L146.418 50.5992L146.5 51.7798L145.692 51.8116L144.711 46.9346H145.837Z" fill="#31344F"/>
<path d="M153.297 46.9346L152.148 53.5463H151.081L152.23 46.9346H153.297ZM154.932 46.9346L154.773 47.8609H150.445L150.609 46.9346H154.932Z" fill="#31344F"/>
<path d="M160.162 46.9346L159.999 47.8609H157.597L156.611 53.5463H155.535L156.684 46.9346H160.162ZM157.011 49.4548L158.278 49.4639C158.662 49.476 158.986 49.5684 159.249 49.7409C159.513 49.9104 159.707 50.142 159.831 50.4357C159.955 50.7293 160.003 51.0669 159.976 51.4483C159.949 51.7602 159.873 52.0447 159.749 52.3021C159.628 52.5594 159.467 52.7819 159.268 52.9696C159.068 53.1573 158.835 53.3026 158.568 53.4055C158.302 53.5054 158.01 53.5523 157.692 53.5463H155.539L156.684 46.9346H157.76L156.775 52.6245L157.737 52.6335C157.967 52.6275 158.164 52.57 158.328 52.461C158.491 52.349 158.62 52.2037 158.714 52.025C158.81 51.8434 158.873 51.6466 158.9 51.4347C158.921 51.2682 158.915 51.1078 158.882 50.9534C158.851 50.7959 158.785 50.6658 158.682 50.5628C158.579 50.4599 158.432 50.4009 158.241 50.3857L156.847 50.3812L157.011 49.4548Z" fill="#31344F"/>
<path d="M166.478 49.7L166.305 50.8171C166.251 51.1834 166.158 51.5376 166.028 51.8797C165.901 52.2188 165.73 52.523 165.515 52.7925C165.303 53.0589 165.043 53.2693 164.734 53.4237C164.425 53.575 164.065 53.6462 163.653 53.6371C163.263 53.628 162.939 53.5417 162.682 53.3783C162.427 53.2118 162.23 52.9938 162.091 52.7244C161.952 52.4519 161.863 52.1522 161.823 51.8252C161.784 51.4953 161.785 51.1623 161.828 50.8262L162 49.7C162.055 49.3368 162.146 48.9841 162.273 48.642C162.403 48.2999 162.576 47.9911 162.791 47.7156C163.008 47.4401 163.272 47.2237 163.581 47.0663C163.892 46.9058 164.256 46.8316 164.671 46.8438C165.067 46.8528 165.393 46.9421 165.647 47.1117C165.901 47.2812 166.096 47.5037 166.233 47.7792C166.369 48.0547 166.455 48.3604 166.491 48.6965C166.528 49.0295 166.523 49.364 166.478 49.7ZM165.243 50.8262L165.411 49.6819C165.435 49.5033 165.45 49.308 165.456 49.0961C165.465 48.8812 165.447 48.6753 165.402 48.4785C165.359 48.2817 165.274 48.1183 165.147 47.9881C165.023 47.8579 164.839 47.7883 164.593 47.7792C164.33 47.7701 164.107 47.8231 163.926 47.9381C163.744 48.0532 163.596 48.2076 163.481 48.4013C163.366 48.5951 163.276 48.8055 163.213 49.0325C163.149 49.2565 163.101 49.476 163.068 49.691L162.904 50.8308C162.88 51.0063 162.865 51.2001 162.859 51.412C162.856 51.6239 162.877 51.8268 162.922 52.0205C162.968 52.2112 163.052 52.3702 163.177 52.4973C163.304 52.6245 163.488 52.6941 163.731 52.7062C163.994 52.7153 164.215 52.6638 164.394 52.5518C164.572 52.4398 164.719 52.2899 164.834 52.1022C164.949 51.9146 165.038 51.7087 165.102 51.4847C165.165 51.2576 165.212 51.0381 165.243 50.8262Z" fill="#31344F"/>
<path d="M172.335 46.9346L172.171 47.8609H169.642L169.805 46.9346H172.335ZM173.17 46.9346L172.021 53.5463H170.945L172.099 46.9346H173.17ZM169.592 46.9346H170.668L169.978 50.2268C169.924 50.4902 169.865 50.7748 169.801 51.0805C169.737 51.3863 169.654 51.686 169.551 51.9796C169.451 52.2733 169.321 52.5412 169.161 52.7834C169 53.0226 168.799 53.2118 168.557 53.351C168.315 53.4903 168.018 53.5554 167.667 53.5463H167.376L167.485 52.6245L167.626 52.6154C167.853 52.5942 168.042 52.5155 168.193 52.3792C168.345 52.24 168.466 52.0674 168.557 51.8616C168.651 51.6527 168.723 51.4317 168.775 51.1986C168.829 50.9625 168.872 50.7324 168.902 50.5083C168.935 50.2843 168.967 50.0875 168.997 49.918L169.592 46.9346Z" fill="#31344F"/>
<path d="M175.631 49.4548L176.898 49.4639C177.282 49.476 177.606 49.5684 177.869 49.7409C178.133 49.9104 178.327 50.142 178.451 50.4357C178.575 50.7293 178.623 51.0669 178.596 51.4483C178.569 51.7602 178.493 52.0447 178.369 52.3021C178.248 52.5594 178.087 52.7819 177.888 52.9696C177.688 53.1573 177.455 53.3026 177.188 53.4055C176.922 53.5054 176.63 53.5523 176.312 53.5463H174.159L175.304 46.9346H176.38L175.395 52.6245L176.357 52.6335C176.587 52.6275 176.784 52.57 176.948 52.461C177.111 52.349 177.24 52.2037 177.334 52.025C177.43 51.8434 177.493 51.6466 177.52 51.4347C177.541 51.2682 177.535 51.1078 177.502 50.9534C177.471 50.7959 177.405 50.6658 177.302 50.5628C177.199 50.4599 177.052 50.4009 176.861 50.3857L175.467 50.3812L175.631 49.4548Z" fill="#31344F"/>
<path d="M184.267 49.6864L184.103 50.6128H181.392L181.556 49.6864H184.267ZM182.291 46.9346L181.143 53.5463H180.066L181.211 46.9346H182.291ZM185.579 46.9346L184.43 53.5463H183.359L184.507 46.9346H185.579Z" fill="#31344F"/>
<path d="M189.842 47.8973L187.327 53.5463H186.173L189.352 46.9346H190.078L189.842 47.8973ZM190.11 53.5463L189.538 47.7928L189.62 46.9346H190.31L191.205 53.5463H190.11ZM190.56 51.0896L190.392 52.016H187.399L187.563 51.0896H190.56Z" fill="#31344F"/>
<path d="M196.208 51.076L194.914 51.0714L194.519 50.8853C194.131 50.7036 193.856 50.4478 193.692 50.1178C193.532 49.7848 193.468 49.4079 193.501 48.9871C193.538 48.5603 193.654 48.1939 193.851 47.8882C194.051 47.5794 194.314 47.3433 194.641 47.1798C194.968 47.0133 195.345 46.93 195.772 46.93L197.688 46.9346L196.544 53.5463H195.468L196.453 47.8609L195.727 47.8519C195.369 47.8549 195.095 47.9714 194.905 48.2015C194.714 48.4316 194.599 48.7131 194.559 49.0461C194.538 49.2278 194.541 49.4034 194.569 49.5729C194.596 49.7394 194.662 49.8802 194.768 49.9952C194.874 50.1103 195.033 50.1723 195.245 50.1814L196.362 50.1859L196.208 51.076ZM195.345 50.5628L193.592 53.5463H192.389L194.16 50.5628H195.345Z" fill="#31344F"/>
<path d="M206.387 46.9346L206.224 47.8609H203.694L203.858 46.9346H206.387ZM207.223 46.9346L206.074 53.5463H204.997L206.151 46.9346H207.223ZM203.644 46.9346H204.72L204.03 50.2268C203.976 50.4902 203.917 50.7748 203.853 51.0805C203.79 51.3863 203.706 51.686 203.603 51.9796C203.503 52.2733 203.373 52.5412 203.213 52.7834C203.052 53.0226 202.851 53.2118 202.609 53.351C202.367 53.4903 202.07 53.5554 201.719 53.5463H201.428L201.537 52.6245L201.678 52.6154C201.905 52.5942 202.094 52.5155 202.246 52.3792C202.397 52.24 202.518 52.0674 202.609 51.8616C202.703 51.6527 202.775 51.4317 202.827 51.1986C202.881 50.9625 202.924 50.7324 202.954 50.5083C202.987 50.2843 203.019 50.0875 203.049 49.918L203.644 46.9346Z" fill="#31344F"/>
<path d="M209.628 51.58L212.58 46.9346H213.684L212.535 53.5463H211.458L212.267 48.9008L209.311 53.5463H208.216L209.365 46.9346H210.437L209.628 51.58Z" fill="#31344F"/>
<path d="M219.336 46.9346L219.173 47.8609H216.775L215.785 53.5463H214.709L215.858 46.9346H219.336Z" fill="#31344F"/>
<path d="M222.314 47.8973L219.798 53.5463H218.645L221.824 46.9346H222.55L222.314 47.8973ZM222.582 53.5463L222.01 47.7928L222.092 46.9346H222.782L223.676 53.5463H222.582ZM223.032 51.0896L222.864 52.016H219.871L220.035 51.0896H223.032Z" fill="#31344F"/>
<path fill-rule="evenodd" clip-rule="evenodd" d="M12.9623 3.9267C10.9424 4.54941 9.29724 5.87009 8.1436 7.79413C7.50721 8.85552 6.95699 11.598 6.31562 16.9061C6.08899 18.7805 5.79089 20.7435 5.65264 21.2684C5.51467 21.7932 5.19384 23.8789 4.93951 25.9033C4.68545 27.9277 4.22998 31.3016 3.92772 33.4009C1.62958 49.3587 1.48303 50.6346 1.77199 52.1715C2.06262 53.7166 3.00957 54.9476 4.61785 55.8707C5.59417 56.4313 6.22835 56.548 8.88166 56.6549C10.9518 56.7383 11.9985 56.6846 11.9985 56.4946C11.9985 56.3375 12.4035 56.0736 12.8989 55.9081C14.2246 55.4651 15.7755 53.9284 15.98 52.8553C16.0758 52.3523 16.2906 50.9591 16.4573 49.7595C16.797 47.3171 17.6586 45.2565 18.8516 44.034C19.2905 43.5841 20.3804 41.9445 21.2736 40.3907C22.6455 38.0037 22.8472 37.4857 22.5735 37.0543C22.1626 36.4071 22.1541 36.4649 22.7799 35.692C24.7533 33.2545 26.0214 31.8537 28.2752 29.621C29.6846 28.2248 30.8476 26.9093 30.8593 26.6975C30.8709 26.4856 30.9241 25.9442 30.9773 25.4943C31.0305 25.0445 31.1607 23.8176 31.2668 22.7679C31.3726 21.7182 31.5691 20.6527 31.7029 20.4003C32.0329 19.7773 32.011 19.0155 31.6691 19.2236C31.5167 19.3163 31.392 19.5777 31.392 19.8043C31.392 20.3842 30.7692 20.9297 29.9824 21.0391C29.5192 21.1034 28.9465 21.6719 28.1151 22.8928C26.9016 24.6745 25.8978 25.7517 25.2543 25.9627C25.0357 26.0344 24.8977 26.5778 24.8913 27.3911C24.8841 28.3462 24.747 28.7865 24.3887 29.0076C24.0064 29.2431 23.8358 29.2197 23.6271 28.9023C23.4382 28.6147 23.4097 28.7565 23.531 29.3795C23.6479 29.9787 23.5969 30.2656 23.3736 30.2656C23.1645 30.2656 23.1107 30.475 23.2271 30.8359C23.3711 31.282 23.3058 31.3858 22.927 31.3131C22.2064 31.1743 21.6096 29.2636 21.9695 28.2477C22.1272 27.8025 22.4203 27.2463 22.6206 27.0116C22.8209 26.7768 23.144 26.0328 23.3384 25.358C23.5327 24.6832 23.7864 24.0084 23.902 23.8585C24.0178 23.7085 24.1868 23.278 24.2777 22.9018C24.3685 22.5252 24.8697 21.7588 25.3914 21.1986C26.1259 20.4093 26.3431 19.9365 26.355 19.1025C26.3724 17.8612 26.6542 17.2586 28.0383 15.5028C28.5877 14.8059 29.2864 13.895 29.5912 13.4784C29.896 13.0618 30.3719 12.5111 30.6487 12.2543C31.2072 11.7365 33.9287 10.908 35.0713 10.908C36.303 10.908 36.8344 9.2154 35.8941 8.28706C35.5001 7.89827 35.4234 7.4097 35.4843 5.6776L35.5594 3.54663L24.8179 3.56489C16.999 3.57825 13.7733 3.67668 12.9623 3.9267ZM42.8894 4.02375C42.484 4.99981 41.9394 7.53211 41.9299 8.48554C41.9241 9.05727 41.6789 9.77269 41.3462 10.189L40.7724 10.9069L41.5451 11.1959C41.9698 11.3548 43.1321 11.5552 44.1272 11.6411C45.8034 11.7859 48.5681 12.8871 48.5689 13.4105C48.5692 13.6341 52.5266 16.0882 52.8867 16.0882C53.0264 16.0882 53.6846 16.5776 54.3496 17.1755C55.4761 18.1889 55.5459 18.3326 55.3763 19.2884C55.0993 20.851 53.7919 24.2909 53.0812 25.328C52.733 25.8362 52.4479 26.4088 52.4479 26.6002C52.4479 26.7918 52.321 26.99 52.1658 27.041C52.0107 27.0917 51.8087 27.8074 51.7173 28.6313C51.5054 30.5377 51.125 31.1227 49.6804 31.7637L49.2269 31.965C48.8082 32.1508 48.3169 32.0284 48.0343 31.6679L47.9921 31.614C47.4732 30.9523 47.4746 30.9428 48.1578 30.3915C48.9897 29.7203 49.0385 29.4493 48.2921 29.6412C47.4078 29.8689 47.6383 29.3189 49.131 27.6403C50.6429 25.9401 50.6786 25.8477 50.8995 23.0711C50.9817 22.0383 51.2469 20.8959 51.4887 20.5325C51.7309 20.1693 51.8791 19.726 51.8187 19.5477C51.7528 19.3541 51.5577 19.461 51.3341 19.813L50.9596 20.4027L49.6951 19.7718C48.9997 19.425 47.9777 19.0649 47.4241 18.9716L46.4176 18.8018L46.2253 20.063C46.1198 20.7566 45.7272 22.2624 45.3532 23.4092C44.9792 24.5562 44.555 26.387 44.4106 27.4781C44.1197 29.6769 43.7668 30.5382 43.157 30.5382C42.7101 30.5382 42.7076 30.5537 42.6475 33.6736C42.6095 35.6372 42.4882 36.0933 41.4315 38.2455C40.786 39.5605 40.2577 40.7568 40.2577 40.9038C40.2577 41.051 40.1485 41.1712 40.0152 41.1712C39.882 41.1712 39.7 41.53 39.6107 41.9687C39.4969 42.5295 39.2617 42.7926 38.8184 42.8548C38.4089 42.9123 37.9562 43.3581 37.5259 44.127C36.7291 45.551 35.4478 46.4019 34.4509 46.1685C33.4785 45.9409 33.0543 45.5624 33.0543 44.9231C33.0543 44.453 32.9053 44.5119 31.9531 45.3585C30.3733 46.7631 28.3583 47.075 27.6868 46.0194C27.2271 45.2969 28.6321 42.7804 29.9879 41.8976C30.583 41.5099 31.4225 40.7277 31.8528 40.1595C32.2833 39.5913 32.7111 39.0651 32.8036 38.9901C33.233 38.6414 33.5655 37.6602 33.4286 37.1454C33.2837 36.6007 33.2175 36.6178 31.9151 37.5386C31.166 38.0683 30.0927 38.9795 29.5303 39.5637C28.9676 40.148 28.3569 40.626 28.173 40.626C27.83 40.626 24.5921 43.1583 23.9928 43.8955C23.8089 44.1215 23.3844 44.9814 23.0492 45.8062C22.7142 46.6309 22.118 47.7348 21.7244 48.2591C21.3304 48.7837 20.5979 50.0719 20.0961 51.1219C19.5944 52.1721 19.063 53.2441 18.9156 53.5045C18.5338 54.179 18.5829 54.8644 19.0835 55.8519L19.5193 56.7118H26.5736C33.2042 56.7118 33.6126 56.6832 33.3732 56.2347C32.5252 54.6452 32.8332 51.7042 33.9747 50.4923C35.2018 49.1896 36.3676 48.7035 38.2216 48.7207C40.7444 48.7439 42.3574 49.9517 43.1999 52.4483C43.6432 53.761 43.5798 54.4345 42.8337 56.3484C42.6996 56.6917 43.6562 56.7342 49.8489 56.6606C56.7574 56.5785 57.0647 56.5521 58.266 55.9332C60.9173 54.567 62.7245 52.1514 63.0886 49.4868C63.1911 48.7371 63.4493 46.9581 63.6629 45.5335C63.8762 44.109 64.314 41.1031 64.6359 38.8538C65.2138 34.8149 65.7164 31.3008 66.8584 23.3132C67.1798 21.0639 67.6765 17.6286 67.9619 15.6792C68.8091 9.89347 68.836 9.59847 68.6371 8.29361C68.3911 6.67875 67.0728 4.9551 65.4759 4.16008C64.2622 3.5559 64.0857 3.54663 53.6655 3.54663C43.8513 3.54663 43.073 3.58098 42.8894 4.02375Z" fill="url(#paint0_linear_10_458)"/>
<defs>
<linearGradient id="paint0_linear_10_458" x1="68.7228" y1="30.0012" x2="1.6626" y2="30.0012" gradientUnits="userSpaceOnUse">
<stop stop-color="#313A59"/>
<stop offset="1" stop-color="#3D649B"/>
</linearGradient>
</defs>
</svg>
